<mxfile host="app.diagrams.net" agent="Mozilla/5.0 (Windows NT 10.0; Win64; x64) AppleWebKit/537.36 (KHTML, like Gecko) Chrome/128.0.0.0 Safari/537.36" version="24.7.8">
  <diagram id="C5RBs43oDa-KdzZeNtuy" name="Page-1">
    <mxGraphModel dx="794" dy="539" grid="1" gridSize="10" guides="1" tooltips="1" connect="1" arrows="1" fold="1" page="1" pageScale="1" pageWidth="827" pageHeight="1169" math="0" shadow="0">
      <root>
        <mxCell id="WIyWlLk6GJQsqaUBKTNV-0" />
        <mxCell id="WIyWlLk6GJQsqaUBKTNV-1" parent="WIyWlLk6GJQsqaUBKTNV-0" />
        <mxCell id="yGrnE1PD_NmoXbB0c2LZ-3" value="" style="edgeStyle=orthogonalEdgeStyle;rounded=0;orthogonalLoop=1;jettySize=auto;html=1;" parent="WIyWlLk6GJQsqaUBKTNV-1" source="yGrnE1PD_NmoXbB0c2LZ-0" target="yGrnE1PD_NmoXbB0c2LZ-2" edge="1">
          <mxGeometry relative="1" as="geometry" />
        </mxCell>
        <mxCell id="yGrnE1PD_NmoXbB0c2LZ-0" value="Membaca bukpan yang telah dibagikan&amp;nbsp;" style="rounded=1;whiteSpace=wrap;html=1;" parent="WIyWlLk6GJQsqaUBKTNV-1" vertex="1">
          <mxGeometry x="155" y="130" width="130" height="60" as="geometry" />
        </mxCell>
        <mxCell id="yGrnE1PD_NmoXbB0c2LZ-1" value="" style="endArrow=classic;html=1;rounded=0;exitX=0.5;exitY=1;exitDx=0;exitDy=0;entryX=0.5;entryY=0;entryDx=0;entryDy=0;strokeColor=default;" parent="WIyWlLk6GJQsqaUBKTNV-1" source="jEUhK4ZdqcAdpbAayA9G-10" target="yGrnE1PD_NmoXbB0c2LZ-0" edge="1">
          <mxGeometry width="50" height="50" relative="1" as="geometry">
            <mxPoint x="220" y="70" as="sourcePoint" />
            <mxPoint x="260" y="120" as="targetPoint" />
          </mxGeometry>
        </mxCell>
        <mxCell id="yGrnE1PD_NmoXbB0c2LZ-5" value="" style="edgeStyle=orthogonalEdgeStyle;rounded=0;orthogonalLoop=1;jettySize=auto;html=1;" parent="WIyWlLk6GJQsqaUBKTNV-1" source="yGrnE1PD_NmoXbB0c2LZ-2" target="yGrnE1PD_NmoXbB0c2LZ-4" edge="1">
          <mxGeometry relative="1" as="geometry" />
        </mxCell>
        <mxCell id="yGrnE1PD_NmoXbB0c2LZ-12" value="" style="edgeStyle=orthogonalEdgeStyle;rounded=0;orthogonalLoop=1;jettySize=auto;html=1;" parent="WIyWlLk6GJQsqaUBKTNV-1" source="yGrnE1PD_NmoXbB0c2LZ-2" target="yGrnE1PD_NmoXbB0c2LZ-11" edge="1">
          <mxGeometry relative="1" as="geometry" />
        </mxCell>
        <mxCell id="yGrnE1PD_NmoXbB0c2LZ-2" value="Pembagian kelompok" style="rhombus;whiteSpace=wrap;html=1;" parent="WIyWlLk6GJQsqaUBKTNV-1" vertex="1">
          <mxGeometry x="175" y="245" width="90" height="90" as="geometry" />
        </mxCell>
        <mxCell id="yGrnE1PD_NmoXbB0c2LZ-4" value="Lapor ke CP" style="rounded=1;whiteSpace=wrap;html=1;" parent="WIyWlLk6GJQsqaUBKTNV-1" vertex="1">
          <mxGeometry x="160" y="390" width="120" height="60" as="geometry" />
        </mxCell>
        <mxCell id="yGrnE1PD_NmoXbB0c2LZ-10" value="" style="endArrow=classic;html=1;rounded=0;exitX=0;exitY=0.5;exitDx=0;exitDy=0;edgeStyle=orthogonalEdgeStyle;entryX=0;entryY=0.5;entryDx=0;entryDy=0;" parent="WIyWlLk6GJQsqaUBKTNV-1" source="yGrnE1PD_NmoXbB0c2LZ-4" target="yGrnE1PD_NmoXbB0c2LZ-2" edge="1">
          <mxGeometry width="50" height="50" relative="1" as="geometry">
            <mxPoint x="210" y="300" as="sourcePoint" />
            <mxPoint x="100" y="280" as="targetPoint" />
            <Array as="points">
              <mxPoint x="160" y="410" />
              <mxPoint x="101" y="410" />
              <mxPoint x="101" y="290" />
            </Array>
          </mxGeometry>
        </mxCell>
        <mxCell id="yGrnE1PD_NmoXbB0c2LZ-14" value="" style="edgeStyle=orthogonalEdgeStyle;rounded=0;orthogonalLoop=1;jettySize=auto;html=1;" parent="WIyWlLk6GJQsqaUBKTNV-1" source="yGrnE1PD_NmoXbB0c2LZ-11" target="yGrnE1PD_NmoXbB0c2LZ-13" edge="1">
          <mxGeometry relative="1" as="geometry" />
        </mxCell>
        <mxCell id="yGrnE1PD_NmoXbB0c2LZ-11" value="Konfirmasi ke pendamping kelompok" style="rounded=1;whiteSpace=wrap;html=1;" parent="WIyWlLk6GJQsqaUBKTNV-1" vertex="1">
          <mxGeometry x="330" y="260" width="120" height="60" as="geometry" />
        </mxCell>
        <mxCell id="yGrnE1PD_NmoXbB0c2LZ-16" value="" style="edgeStyle=orthogonalEdgeStyle;rounded=0;orthogonalLoop=1;jettySize=auto;html=1;" parent="WIyWlLk6GJQsqaUBKTNV-1" source="yGrnE1PD_NmoXbB0c2LZ-13" target="yGrnE1PD_NmoXbB0c2LZ-15" edge="1">
          <mxGeometry relative="1" as="geometry" />
        </mxCell>
        <mxCell id="yGrnE1PD_NmoXbB0c2LZ-13" value="Masuk ke grup WA kelompok" style="rounded=1;whiteSpace=wrap;html=1;" parent="WIyWlLk6GJQsqaUBKTNV-1" vertex="1">
          <mxGeometry x="330" y="380" width="120" height="60" as="geometry" />
        </mxCell>
        <mxCell id="yGrnE1PD_NmoXbB0c2LZ-18" value="" style="edgeStyle=orthogonalEdgeStyle;rounded=0;orthogonalLoop=1;jettySize=auto;html=1;exitX=0.5;exitY=1;exitDx=0;exitDy=0;entryX=0.5;entryY=0;entryDx=0;entryDy=0;" parent="WIyWlLk6GJQsqaUBKTNV-1" source="jEUhK4ZdqcAdpbAayA9G-11" target="jEUhK4ZdqcAdpbAayA9G-0" edge="1">
          <mxGeometry relative="1" as="geometry">
            <mxPoint x="600" y="720" as="sourcePoint" />
            <mxPoint x="680" y="730" as="targetPoint" />
          </mxGeometry>
        </mxCell>
        <mxCell id="jEUhK4ZdqcAdpbAayA9G-12" value="" style="edgeStyle=orthogonalEdgeStyle;rounded=0;orthogonalLoop=1;jettySize=auto;html=1;entryX=0.5;entryY=0;entryDx=0;entryDy=0;" edge="1" parent="WIyWlLk6GJQsqaUBKTNV-1" source="yGrnE1PD_NmoXbB0c2LZ-15" target="yGrnE1PD_NmoXbB0c2LZ-17">
          <mxGeometry relative="1" as="geometry">
            <mxPoint x="420" y="590" as="targetPoint" />
            <Array as="points">
              <mxPoint x="390" y="610" />
              <mxPoint x="390" y="610" />
            </Array>
          </mxGeometry>
        </mxCell>
        <mxCell id="yGrnE1PD_NmoXbB0c2LZ-15" value="Masuk ke Google Classroom kelompok" style="rounded=1;whiteSpace=wrap;html=1;" parent="WIyWlLk6GJQsqaUBKTNV-1" vertex="1">
          <mxGeometry x="330" y="500" width="120" height="60" as="geometry" />
        </mxCell>
        <mxCell id="jEUhK4ZdqcAdpbAayA9G-13" value="" style="edgeStyle=orthogonalEdgeStyle;rounded=0;orthogonalLoop=1;jettySize=auto;html=1;" edge="1" parent="WIyWlLk6GJQsqaUBKTNV-1" source="yGrnE1PD_NmoXbB0c2LZ-17" target="jEUhK4ZdqcAdpbAayA9G-11">
          <mxGeometry relative="1" as="geometry" />
        </mxCell>
        <mxCell id="yGrnE1PD_NmoXbB0c2LZ-17" value="Mengikuti Interface:Demo" style="rounded=1;whiteSpace=wrap;html=1;" parent="WIyWlLk6GJQsqaUBKTNV-1" vertex="1">
          <mxGeometry x="330" y="620" width="120" height="60" as="geometry" />
        </mxCell>
        <mxCell id="jEUhK4ZdqcAdpbAayA9G-18" value="" style="edgeStyle=orthogonalEdgeStyle;rounded=0;orthogonalLoop=1;jettySize=auto;html=1;" edge="1" parent="WIyWlLk6GJQsqaUBKTNV-1" source="jEUhK4ZdqcAdpbAayA9G-0" target="jEUhK4ZdqcAdpbAayA9G-17">
          <mxGeometry relative="1" as="geometry" />
        </mxCell>
        <mxCell id="jEUhK4ZdqcAdpbAayA9G-19" style="edgeStyle=orthogonalEdgeStyle;rounded=0;orthogonalLoop=1;jettySize=auto;html=1;exitX=0.5;exitY=1;exitDx=0;exitDy=0;entryX=0.5;entryY=1;entryDx=0;entryDy=0;" edge="1" parent="WIyWlLk6GJQsqaUBKTNV-1" source="jEUhK4ZdqcAdpbAayA9G-17" target="jEUhK4ZdqcAdpbAayA9G-17">
          <mxGeometry relative="1" as="geometry" />
        </mxCell>
        <mxCell id="jEUhK4ZdqcAdpbAayA9G-0" value="Mengikuti Interface: Mainphase" style="whiteSpace=wrap;html=1;rounded=1;" vertex="1" parent="WIyWlLk6GJQsqaUBKTNV-1">
          <mxGeometry x="330" y="860" width="120" height="60" as="geometry" />
        </mxCell>
        <mxCell id="jEUhK4ZdqcAdpbAayA9G-2" value="Ada" style="text;html=1;align=center;verticalAlign=middle;resizable=0;points=[];autosize=1;strokeColor=none;fillColor=none;" vertex="1" parent="WIyWlLk6GJQsqaUBKTNV-1">
          <mxGeometry x="270" y="270" width="40" height="30" as="geometry" />
        </mxCell>
        <mxCell id="jEUhK4ZdqcAdpbAayA9G-3" value="Tidak ada" style="text;html=1;align=center;verticalAlign=middle;resizable=0;points=[];autosize=1;strokeColor=none;fillColor=none;" vertex="1" parent="WIyWlLk6GJQsqaUBKTNV-1">
          <mxGeometry x="210" y="350" width="80" height="30" as="geometry" />
        </mxCell>
        <mxCell id="jEUhK4ZdqcAdpbAayA9G-29" value="" style="edgeStyle=orthogonalEdgeStyle;rounded=0;orthogonalLoop=1;jettySize=auto;html=1;" edge="1" parent="WIyWlLk6GJQsqaUBKTNV-1" source="jEUhK4ZdqcAdpbAayA9G-4" target="jEUhK4ZdqcAdpbAayA9G-28">
          <mxGeometry relative="1" as="geometry" />
        </mxCell>
        <mxCell id="jEUhK4ZdqcAdpbAayA9G-4" value="Mengikuti Interface: PKMMPD" style="whiteSpace=wrap;html=1;rounded=1;" vertex="1" parent="WIyWlLk6GJQsqaUBKTNV-1">
          <mxGeometry x="330" y="1100" width="120" height="60" as="geometry" />
        </mxCell>
        <mxCell id="jEUhK4ZdqcAdpbAayA9G-27" style="edgeStyle=orthogonalEdgeStyle;rounded=0;orthogonalLoop=1;jettySize=auto;html=1;exitX=0.5;exitY=1;exitDx=0;exitDy=0;entryX=0.5;entryY=0;entryDx=0;entryDy=0;" edge="1" parent="WIyWlLk6GJQsqaUBKTNV-1" source="jEUhK4ZdqcAdpbAayA9G-6" target="jEUhK4ZdqcAdpbAayA9G-20">
          <mxGeometry relative="1" as="geometry" />
        </mxCell>
        <mxCell id="jEUhK4ZdqcAdpbAayA9G-6" value="Mengikuti Makrab" style="whiteSpace=wrap;html=1;rounded=1;" vertex="1" parent="WIyWlLk6GJQsqaUBKTNV-1">
          <mxGeometry x="330" y="1460" width="120" height="60" as="geometry" />
        </mxCell>
        <mxCell id="jEUhK4ZdqcAdpbAayA9G-8" value="Selesai Kegiatan Interface" style="ellipse;whiteSpace=wrap;html=1;rounded=1;" vertex="1" parent="WIyWlLk6GJQsqaUBKTNV-1">
          <mxGeometry x="290" y="1700" width="200" height="80" as="geometry" />
        </mxCell>
        <mxCell id="jEUhK4ZdqcAdpbAayA9G-10" value="Mulai Kegiatan Interface" style="ellipse;whiteSpace=wrap;html=1;" vertex="1" parent="WIyWlLk6GJQsqaUBKTNV-1">
          <mxGeometry x="115" width="210" height="80" as="geometry" />
        </mxCell>
        <mxCell id="jEUhK4ZdqcAdpbAayA9G-11" value="Mengumpulkan Twibbon.jpg dan HelloWorld.cpp" style="whiteSpace=wrap;html=1;rounded=1;" vertex="1" parent="WIyWlLk6GJQsqaUBKTNV-1">
          <mxGeometry x="330" y="740" width="120" height="60" as="geometry" />
        </mxCell>
        <mxCell id="jEUhK4ZdqcAdpbAayA9G-31" style="edgeStyle=orthogonalEdgeStyle;rounded=0;orthogonalLoop=1;jettySize=auto;html=1;exitX=0.5;exitY=1;exitDx=0;exitDy=0;entryX=0.5;entryY=0;entryDx=0;entryDy=0;" edge="1" parent="WIyWlLk6GJQsqaUBKTNV-1" source="jEUhK4ZdqcAdpbAayA9G-17" target="jEUhK4ZdqcAdpbAayA9G-4">
          <mxGeometry relative="1" as="geometry" />
        </mxCell>
        <mxCell id="jEUhK4ZdqcAdpbAayA9G-17" value="Menyelesaikan dan mengumpulkan HTML" style="whiteSpace=wrap;html=1;rounded=1;" vertex="1" parent="WIyWlLk6GJQsqaUBKTNV-1">
          <mxGeometry x="330" y="980" width="120" height="60" as="geometry" />
        </mxCell>
        <mxCell id="jEUhK4ZdqcAdpbAayA9G-26" value="" style="edgeStyle=orthogonalEdgeStyle;rounded=0;orthogonalLoop=1;jettySize=auto;html=1;" edge="1" parent="WIyWlLk6GJQsqaUBKTNV-1" source="jEUhK4ZdqcAdpbAayA9G-20" target="jEUhK4ZdqcAdpbAayA9G-8">
          <mxGeometry relative="1" as="geometry" />
        </mxCell>
        <mxCell id="jEUhK4ZdqcAdpbAayA9G-20" value="Mengumpulkan Logbook.py dan Vlog Interface" style="whiteSpace=wrap;html=1;rounded=1;" vertex="1" parent="WIyWlLk6GJQsqaUBKTNV-1">
          <mxGeometry x="330" y="1580" width="120" height="60" as="geometry" />
        </mxCell>
        <mxCell id="jEUhK4ZdqcAdpbAayA9G-23" value="Mengumpulkan Gitflow dan Poster Carousel" style="whiteSpace=wrap;html=1;rounded=1;" vertex="1" parent="WIyWlLk6GJQsqaUBKTNV-1">
          <mxGeometry x="330" y="1340" width="120" height="60" as="geometry" />
        </mxCell>
        <mxCell id="jEUhK4ZdqcAdpbAayA9G-25" value="" style="endArrow=classic;html=1;rounded=0;entryX=0.5;entryY=0;entryDx=0;entryDy=0;exitX=0.5;exitY=1;exitDx=0;exitDy=0;" edge="1" parent="WIyWlLk6GJQsqaUBKTNV-1" source="jEUhK4ZdqcAdpbAayA9G-23" target="jEUhK4ZdqcAdpbAayA9G-6">
          <mxGeometry width="50" height="50" relative="1" as="geometry">
            <mxPoint x="390" y="1170" as="sourcePoint" />
            <mxPoint x="430" y="1120" as="targetPoint" />
          </mxGeometry>
        </mxCell>
        <mxCell id="jEUhK4ZdqcAdpbAayA9G-30" style="edgeStyle=orthogonalEdgeStyle;rounded=0;orthogonalLoop=1;jettySize=auto;html=1;exitX=0.5;exitY=1;exitDx=0;exitDy=0;entryX=0.5;entryY=0;entryDx=0;entryDy=0;" edge="1" parent="WIyWlLk6GJQsqaUBKTNV-1" source="jEUhK4ZdqcAdpbAayA9G-28" target="jEUhK4ZdqcAdpbAayA9G-23">
          <mxGeometry relative="1" as="geometry" />
        </mxCell>
        <mxCell id="jEUhK4ZdqcAdpbAayA9G-28" value="Mengumpulkan Tugas Logo Hunter" style="whiteSpace=wrap;html=1;rounded=1;" vertex="1" parent="WIyWlLk6GJQsqaUBKTNV-1">
          <mxGeometry x="330" y="1220" width="120" height="60" as="geometry" />
        </mxCell>
      </root>
    </mxGraphModel>
  </diagram>
</mxfile>
